<?xml version="1.0" encoding="utf-8"?>
<svg width="800px" height="800px" viewBox="0 0 1024 1024" class="icon"  version="1.1" xmlns="http://www.w3.org/2000/svg"><path d="M512 512m-296.421053 0a296.421053 296.421053 0 1 0 592.842106 0 296.421053 296.421053 0 1 0-592.842106 0Z" fill="#FFFFFF" /><path d="M970.105263 512c0 224.983579-163.166316 412.186947-377.263158 450.533053v-54.460632C777.135158 870.507789 916.210526 707.206737 916.210526 512c0-222.881684-181.328842-404.210526-404.210526-404.210526S107.789474 289.118316 107.789474 512s181.328842 404.210526 404.210526 404.210526c9.081263 0 18.000842-0.754526 26.947368-1.374315v53.894736c-8.973474 0.538947-17.866105 1.374316-26.947368 1.374316-252.604632 0-458.105263-205.500632-458.105263-458.105263S259.395368 53.894737 512 53.894737s458.105263 205.500632 458.105263 458.105263z m-375.592421 150.393263c33.684211 44.544 75.210105 74.698105 124.739369 90.812632l11.425684 3.718737 10.401684-6.009264C781.204211 727.740632 808.421053 622.565053 808.421053 592.842105h-53.894737c0 22.069895-19.132632 80.869053-33.711158 103.504842-34.816-14.605474-64.538947-39.262316-89.249684-74.13221 48.316632-55.269053 92.079158-117.328842 120.535579-179.900632l-49.044211-22.285473c-23.767579 52.250947-59.742316 104.717474-100.055579 152.656842-24.010105-50.930526-41.148632-115.927579-51.658105-195.395369H700.631579v-53.894737h-155.189895A1848.050526 1848.050526 0 0 1 538.947368 161.684211h-53.894736c0 58.206316 2.155789 112.074105 6.494315 161.68421H323.368421v26.947368c0 216.549053-13.177263 263.545263-100.702316 359.046737l39.747369 36.432842c63.326316-69.093053 92.806737-118.272 105.714526-206.848H485.052632v-53.894736h-111.319579a1742.147368 1742.147368 0 0 0 3.449263-107.789474h120.158316c12.611368 98.250105 35.031579 177.475368 67.395368 238.187789-61.978947 65.536-128.053895 117.975579-173.298526 142.282106l25.519158 47.481263c47.589053-25.573053 114.095158-77.446737 177.55621-142.821053z m125.170526-411.971368l-80.842105-80.842106-38.103579 38.103579 80.842105 80.842106 38.103579-38.103579z" fill="#231F20" /></svg>